<?xml version="1.0" encoding="UTF-8" standalone="no"?>
<!-- Created with Inkscape (http://www.inkscape.org/) -->

<svg
   width="31.341402mm"
   height="31.341402mm"
   viewBox="0 0 31.341402 31.341402"
   version="1.1"
   id="svg1"
   inkscape:version="1.3.2 (091e20ef0f, 2023-11-25)"
   sodipodi:docname="icon.svg"
   inkscape:export-filename="icon.png"
   inkscape:export-xdpi="207.46997"
   inkscape:export-ydpi="207.46997"
   xmlns:inkscape="http://www.inkscape.org/namespaces/inkscape"
   xmlns:sodipodi="http://sodipodi.sourceforge.net/DTD/sodipodi-0.dtd"
   xmlns="http://www.w3.org/2000/svg"
   xmlns:svg="http://www.w3.org/2000/svg">
  <sodipodi:namedview
     id="namedview1"
     pagecolor="#ffffff"
     bordercolor="#000000"
     borderopacity="0.25"
     inkscape:showpageshadow="2"
     inkscape:pageopacity="0.0"
     inkscape:pagecheckerboard="true"
     inkscape:deskcolor="#d1d1d1"
     inkscape:document-units="mm"
     inkscape:zoom="5.7007558"
     inkscape:cx="64.114306"
     inkscape:cy="59.378092"
     inkscape:window-width="1920"
     inkscape:window-height="1011"
     inkscape:window-x="0"
     inkscape:window-y="0"
     inkscape:window-maximized="1"
     inkscape:current-layer="layer1" />
  <defs
     id="defs1" />
  <g
     inkscape:label="Layer 1"
     inkscape:groupmode="layer"
     id="layer1"
     transform="translate(-52.54315,-138.06167)">
    <rect
       style="mix-blend-mode:normal;fill:#752f00;fill-opacity:1;stroke:#d45500;stroke-width:2.3;stroke-dasharray:none;stroke-opacity:1"
       id="rect4-6-8"
       width="29.041403"
       height="29.041403"
       x="53.69315"
       y="139.21167"
       ry="4.6385064" />
    <text
       xml:space="preserve"
       style="font-size:11.2681px;font-family:'RIT Meera New';-inkscape-font-specification:'RIT Meera New';fill:#d45500;stroke-width:0.0939012"
       x="-77.942932"
       y="-148.06358"
       id="text1-0-7-1"
       transform="scale(-0.94027392,-1.0635199)"><tspan
         sodipodi:role="line"
         id="tspan1-6-1-2"
         style="font-size:11.2681px;fill:#d45500;stroke-width:0.0939012"
         x="-77.942932"
         y="-148.06358">&lt;</tspan></text>
    <text
       xml:space="preserve"
       style="font-style:normal;font-variant:normal;font-weight:normal;font-stretch:normal;font-size:11.2681px;font-family:'RIT Meera New';-inkscape-font-specification:'RIT Meera New';fill:#d45500;stroke-width:0.0939012"
       x="-71.884995"
       y="-148.06358"
       id="text2-8-15-9"
       transform="scale(-0.94027392,-1.0635199)"><tspan
         sodipodi:role="line"
         id="tspan2-9-9-3"
         style="font-style:normal;font-variant:normal;font-weight:normal;font-stretch:normal;font-size:11.2681px;font-family:'RIT Meera New';-inkscape-font-specification:'RIT Meera New';fill:#d45500;stroke-width:0.0939012"
         x="-71.884995"
         y="-148.06358">&gt;</tspan></text>
    <path
       style="font-size:12.7px;font-family:'Space Mono';-inkscape-font-specification:'Space Mono';fill:#ffffff;stroke-width:0.203;stroke-opacity:0.686275"
       d="m 62.333745,153.48656 h 0.1524 v -8.4328 h 1.0668 v 8.89 h -2.1336 l -2.5654,-8.4328 h -0.1524 v 8.4328 h -1.0668 v -8.89 h 2.1336 z m 4.292594,-3.2004 v 3.6576 h -1.0668 v -8.89 h 3.175 q 0.6858,0 1.1938,0.2032 0.508,0.1905 0.8382,0.5207 0.3429,0.3302 0.508,0.7747 0.1778,0.4318 0.1778,0.9144 v 0.381 q 0,0.4826 -0.1778,0.9271 -0.1651,0.4445 -0.508,0.7874 -0.3429,0.3302 -0.8509,0.5334 -0.508,0.1905 -1.1811,0.1905 z m 0,-0.9906 h 1.9812 q 1.778,0 1.778,-1.524 v -0.2286 q 0,-0.6731 -0.4445,-1.0795 -0.4318,-0.4191 -1.3335,-0.4191 h -1.9812 z m 6.819894,-4.2418 h 5.3848 v 0.9906 h -4.318 v 2.9464 h 4.2418 v 0.9906 h -4.2418 v 2.9718 h 4.3942 v 0.9906 h -5.461 z"
       id="text3-2-7-9"
       aria-label="NPE" />
  </g>
</svg>
